<?xml version="1.0" encoding="UTF-8" standalone="no"?>
<svg width="92px" height="171px" viewBox="0 0 92 171" version="1.1" xmlns="http://www.w3.org/2000/svg" xmlns:xlink="http://www.w3.org/1999/xlink" xmlns:sketch="http://www.bohemiancoding.com/sketch/ns">
    <!-- Generator: Sketch 3.3.3 (12072) - http://www.bohemiancoding.com/sketch -->
    <title>Group Copy + Shape Copy</title>
    <desc>Created with Sketch.</desc>
    <defs></defs>
    <g id="Page-1" stroke="none" stroke-width="1" fill="none" fill-rule="evenodd" sketch:type="MSPage">
        <g id="v1" sketch:type="MSArtboardGroup" transform="translate(-1150.000000, -134.000000)" fill="#FFFFFF">
            <g id="galvanize" sketch:type="MSLayerGroup" transform="translate(980.000000, 44.000000)">
                <g id="Group-Copy-+-Shape-Copy" transform="translate(170.000000, 90.000000)" sketch:type="MSShapeGroup">
                    <g id="Group-Copy" transform="translate(8.339465, 7.954616)" fill-opacity="0.5">
                        <path d="M37.4149106,86.1665161 C49.527267,86.1665161 57.4312997,81.0835086 58.7494521,57.4149908 L15.865559,57.4149908 C17.2569421,81.0101255 25.5124821,86.1665161 37.4149106,86.1665161 L37.4149106,86.1665161 Z" id="Shape"></path>
                        <g id="Group">
                            <path d="M32.2838801,46.1726894 C35.7989533,42.6551896 35.7989533,36.9704401 32.2838801,33.4431558 C28.778571,29.9452248 23.1007513,29.9452248 19.5905602,33.4431558 C16.4318763,36.6230931 16.1243074,41.5642265 18.6727355,45.0817263 L16.7247991,49.0395252 L20.6743744,47.0924251 C24.1796835,49.6461594 29.1203142,49.3428423 32.2838801,46.1726894 L32.2838801,46.1726894 Z" id="Shape"></path>
                            <path d="M10.8761078,21.1441369 C8.41067456,18.6784624 4.42204288,18.6784624 1.95660958,21.1441369 C-0.503941661,23.6195957 -0.503941661,27.6214245 1.95660958,30.0968834 C4.17794057,32.3130551 7.64419332,32.5234201 10.1047446,30.737763 L12.8728647,32.1222588 L11.5107738,29.323914 C13.3122489,26.8484551 13.0974388,23.370093 10.8761078,21.1441369 L10.8761078,21.1441369 Z" id="Shape"></path>
                            <path d="M22.3440342,7.60738844 C23.9062889,6.03209642 23.9062889,3.46857775 22.3440342,1.88350132 C20.7622512,0.327778151 18.2138232,0.327778151 16.6466864,1.88350132 C15.2260109,3.3169192 15.0941957,5.53309088 16.2219484,7.10838289 L15.3480621,8.87447114 L17.1251269,8.01344197 C18.7069098,9.1631116 20.9135947,9.0310219 22.3440342,7.60738844 L22.3440342,7.60738844 Z" id="Shape"></path>
                        </g>
                    </g>
                    <path d="M74.7781397,0.684790245 L74.7781397,14.3878739 C71.9709632,10.7382843 69.0710278,8.00353822 66.0685695,5.8558575 L56.0017904,15.943597 C71.9611991,21.2271851 74.5438015,39.5338395 74.5438015,57.8796315 C74.5438015,79.6157259 70.994554,101.366497 45.7592576,101.366497 C20.5288432,101.366497 16.7501395,79.6206182 16.7501395,57.8796315 C16.7501395,56.9990335 16.7696677,56.1331121 16.7794318,55.2427297 L0.356228665,71.7148048 C1.62067861,85.3200442 5.24803888,97.6190632 13.9136707,106.322307 C20.0552848,112.476709 30.1952946,116.72804 41.990318,116.72804 C54.4932381,116.72804 65.1068064,113.660624 74.5486836,101.601323 L74.5486836,119.805241 C74.5486836,139.662726 65.1068064,155.484137 42.7030967,155.484137 C29.2530597,155.484137 23.3701941,151.482309 14.8705518,143.914058 L3.79318913,154.779659 C16.0471249,165.884978 25.7135762,170.380921 43.1717732,170.380921 C73.5966846,170.380921 91.5186759,149.33952 91.5186759,120.514612 L91.5186759,0.684790245 L74.7781397,0.684790245 L74.7781397,0.684790245 Z" id="Shape-Copy"></path>
                </g>
            </g>
        </g>
    </g>
</svg>