<svg width="312" height="75" viewBox="0 0 312 75" xmlns="http://www.w3.org/2000/svg"><title>galvanize-logo</title><g fill="#FFF" fill-rule="evenodd"><g fill-opacity=".5"><path d="M15.46 48.73c4.06 0 6.708-1.71 7.15-9.67H8.24c.466 7.936 3.233 9.67 7.22 9.67zM13.74 35.278a3.036 3.036 0 0 0 0-4.282 3.004 3.004 0 0 0-4.252 0 3.043 3.043 0 0 0-.307 3.915l-.652 1.332 1.323-.655c1.176.86 2.83.757 3.89-.31zM6.568 26.86a2.106 2.106 0 0 0-2.988 0 2.142 2.142 0 0 0 0 3.01 2.107 2.107 0 0 0 2.73.216l.927.466-.456-.94a2.133 2.133 0 0 0-.212-2.753zM10.41 22.306a1.377 1.377 0 0 0 0-1.925 1.357 1.357 0 0 0-1.908 0 1.372 1.372 0 0 0-.142 1.758l-.293.594.595-.29c.53.387 1.27.343 1.75-.136z"/></g><path d="M25.186 17.302v4.61c-.94-1.23-1.912-2.15-2.92-2.87l-3.372 3.392c5.348 1.778 6.213 7.935 6.213 14.106 0 7.312-1.19 14.628-9.645 14.628-8.454 0-9.72-7.315-9.72-14.628 0-.296.007-.587.01-.887L.25 41.193c.423 4.577 1.638 8.714 4.542 11.642 2.058 2.07 5.455 3.5 9.407 3.5 4.19 0 7.745-1.032 10.91-5.088v6.123c0 6.68-3.165 12-10.672 12-4.506 0-6.478-1.345-9.326-3.89l-3.71 3.654c4.105 3.736 7.344 5.248 13.193 5.248 10.195 0 16.2-7.078 16.2-16.773V17.3h-5.61zM66.833 56.473v-3.716c-3.14 3.163-5.968 4.19-11.15 4.19-5.34 0-8.48-1.027-10.914-3.556-1.886-1.895-2.905-4.817-2.905-7.9 0-6.79 4.71-11.216 13.348-11.216h11.62v-3.712c0-5.69-2.824-8.53-9.894-8.53-4.946 0-7.46 1.182-9.736 4.422l-3.85-3.554c3.456-4.502 7.384-5.766 13.665-5.766 10.364 0 15.47 4.5 15.47 12.952v26.387h-5.657zm0-17.933H56c-5.814 0-8.64 2.37-8.64 6.872 0 4.505 2.748 6.636 8.873 6.636 3.3 0 6.204-.235 8.638-2.606 1.336-1.264 1.963-3.477 1.963-6.714V38.54zM95.166 56.473c-6.755 0-9.815-4.425-9.815-10.35V.23h5.656v45.657c0 3.793 1.256 5.69 5.182 5.69h3.06v4.898h-4.082v-.002zM122.898 56.473h-5.022L103.74 17.606h6.122l10.525 31.205 10.6-31.204h6.128l-14.217 38.867zM166.986 56.473v-3.716c-3.144 3.163-5.968 4.19-11.153 4.19-5.34 0-8.48-1.027-10.915-3.556-1.884-1.895-2.907-4.817-2.907-7.9 0-6.79 4.714-11.216 13.353-11.216h11.623v-3.712c0-5.69-2.825-8.53-9.897-8.53-4.946 0-7.46 1.182-9.736 4.422l-3.85-3.554c3.456-4.502 7.383-5.766 13.665-5.766 10.365 0 15.47 4.5 15.47 12.952v26.387h-5.654zm0-17.933h-10.838c-5.812 0-8.64 2.37-8.64 6.872 0 4.505 2.75 6.636 8.874 6.636 3.3 0 6.207-.235 8.642-2.606 1.335-1.264 1.962-3.477 1.962-6.714V38.54zM209.474 56.473V32.535c0-6.872-3.694-10.35-9.503-10.35-5.808 0-9.577 3.555-9.577 10.35v23.938h-5.655V17.606h5.655v4.265c2.748-3.158 6.517-4.736 10.83-4.736 4.168 0 7.54 1.264 9.9 3.632 2.748 2.687 4.006 6.32 4.006 10.824v24.883h-5.656zM227.435 56.473V17.606h5.655v38.867h-5.655zM244.16 56.473v-4.9l21.513-28.912h-20.34v-5.054h26.857v4.818l-21.598 28.99h21.598v5.06h-28.03zM285.035 38.54c0 8.53 4.006 13.428 11.387 13.428 4.473 0 7.067-1.343 10.128-4.424l3.847 3.397c-3.923 3.95-7.54 6.004-14.135 6.004-10.205 0-16.882-6.16-16.882-19.905 0-12.562 6.044-19.91 15.86-19.91 9.975 0 15.865 7.267 15.865 18.8v2.606h-26.07v.004zm19.24-10.74c-1.494-3.556-4.95-5.848-9.034-5.848-4.082 0-7.532 2.292-9.03 5.847-.86 2.133-1.02 3.316-1.175 6.476h20.415c-.158-3.16-.312-4.344-1.174-6.477z"/></g></svg>