<svg width="197" height="196" viewBox="0 0 197 196" xmlns="http://www.w3.org/2000/svg"><title>Imported Layers</title><g fill="#9B9B9B" fill-rule="evenodd"><path d="M53.856 195.994H12.08c-5.466 0-11.698-6.56-11.698-12.313v-41.723c0-4.814 3.727-9.107 8.355-10.057V60.213C4.11 59.263.382 54.97.382 50.156V8.428c0-4.97 4.593-8.18 11.7-8.18h41.774c5.858 0 8.828 2.752 8.828 8.18v41.728c0 4.814-3.727 9.107-8.355 10.057V131.9c4.627.95 8.354 5.243 8.354 10.057v41.724c0 6.053-3.302 12.314-8.828 12.314zM12.08 4.062c-.805 0-7.88.122-7.88 4.366v41.728c0 3.626 3.465 6.438 6.446 6.438 1.054 0 1.91.855 1.91 1.907v75.112a1.907 1.907 0 0 1-1.91 1.906c-2.98 0-6.446 2.812-6.446 6.44v41.723c0 3.656 4.493 8.5 7.88 8.5h41.776c3.27 0 5.01-4.936 5.01-8.5v-41.723c0-3.627-3.465-6.44-6.446-6.44a1.907 1.907 0 0 1-1.91-1.905v-75.11c0-1.053.856-1.908 1.91-1.908 2.98 0 6.446-2.812 6.446-6.438V8.428c0-2.896-.775-4.366-5.01-4.366H12.08zM179.19 187.65H73.307a1.907 1.907 0 1 1 0-3.814h105.88c7.99 0 13.358-8.71 13.358-16.845V25.123c0-7.962-4.993-12.715-13.357-12.715H73.307a1.907 1.907 0 0 1 0-3.813h105.88c10.434 0 17.176 6.487 17.176 16.528v141.87c0 9.934-6.567 20.657-17.175 20.657"/><path d="M169.39 62.476H77.486a1.907 1.907 0 0 1-1.91-1.907V35.534c0-1.053.855-1.907 1.91-1.907h91.904c1.055 0 1.91.854 1.91 1.907V60.57a1.907 1.907 0 0 1-1.91 1.906zm-89.996-3.813h88.087V37.44H79.395v21.223zM169.39 162.614H77.486a1.907 1.907 0 0 1-1.91-1.906v-83.45c0-1.052.855-1.906 1.91-1.906h91.904c1.055 0 1.91.854 1.91 1.907v83.448a1.907 1.907 0 0 1-1.91 1.906zM79.394 158.8h88.087V79.167H79.395V158.8z"/><path d="M110.905 150.097a1.907 1.907 0 0 1-1.91-1.907V89.776c0-1.053.855-1.906 1.91-1.906 1.054 0 1.91.853 1.91 1.906v58.414a1.907 1.907 0 0 1-1.91 1.907M135.97 150.097a1.907 1.907 0 0 1-1.91-1.907V89.776c0-1.053.855-1.906 1.91-1.906 1.054 0 1.91.853 1.91 1.906v58.414a1.907 1.907 0 0 1-1.91 1.907"/><path d="M156.858 104.2h-66.84a1.907 1.907 0 1 1 0-3.813h66.84a1.907 1.907 0 1 1 0 3.813M156.858 120.89h-66.84a1.907 1.907 0 1 1 0-3.813h66.84a1.907 1.907 0 1 1 0 3.813M156.858 137.58h-66.84a1.907 1.907 0 1 1 0-3.813h66.84a1.907 1.907 0 1 1 0 3.813"/></g></svg>