<svg width="92" height="171" viewBox="0 0 92 171" xmlns="http://www.w3.org/2000/svg"><title>Group Copy + Shape Copy</title><g fill="#FFF" fill-rule="evenodd"><g fill-opacity=".5"><path d="M45.754 94.12c12.113 0 20.017-5.082 21.335-28.75H24.204c1.39 23.595 9.647 28.75 21.55 28.75zM40.623 54.127c3.515-3.517 3.515-9.202 0-12.73-3.505-3.497-9.183-3.497-12.693 0a9.02 9.02 0 0 0-.918 11.64l-1.948 3.957 3.95-1.947c3.505 2.554 8.446 2.25 11.61-.92zM19.216 29.1a6.302 6.302 0 0 0-8.92 0 6.352 6.352 0 0 0 0 8.95 6.307 6.307 0 0 0 8.148.642l2.768 1.385-1.362-2.798a6.323 6.323 0 0 0-.634-8.18zM30.683 15.562c1.563-1.575 1.563-4.14 0-5.724-1.58-1.556-4.13-1.556-5.697 0a4.068 4.068 0 0 0-.425 5.225l-.872 1.766 1.777-.862a4.027 4.027 0 0 0 5.218-.406z"/></g><path d="M74.778.685v13.703c-2.807-3.65-5.707-6.384-8.71-8.532L56.003 15.944c15.96 5.283 18.542 23.59 18.542 41.936 0 21.736-3.55 43.486-28.785 43.486-25.23 0-29.01-21.745-29.01-43.486 0-.88.02-1.747.03-2.637L.355 71.715C1.62 85.32 5.248 97.62 13.914 106.322c6.14 6.155 16.28 10.406 28.076 10.406 12.503 0 23.117-3.067 32.56-15.127v18.205c0 19.858-9.443 35.68-31.847 35.68-13.45 0-19.333-4.003-27.832-11.57L3.794 154.78c12.254 11.105 21.92 15.6 39.38 15.6 30.424 0 48.346-21.04 48.346-49.865V.685H74.777z"/></g></svg>