<?xml version="1.0" encoding="UTF-8" standalone="no"?>
<svg width="312px" height="75px" viewBox="0 0 312 75" version="1.1" xmlns="http://www.w3.org/2000/svg" xmlns:xlink="http://www.w3.org/1999/xlink" xmlns:sketch="http://www.bohemiancoding.com/sketch/ns">
    <!-- Generator: Sketch 3.3.3 (12072) - http://www.bohemiancoding.com/sketch -->
    <title>galvanize-logo</title>
    <desc>Created with Sketch.</desc>
    <defs></defs>
    <g id="Page-1" stroke="none" stroke-width="1" fill="none" fill-rule="evenodd" sketch:type="MSPage">
        <g id="v1-more-information" sketch:type="MSArtboardGroup" transform="translate(-1039.000000, -127.000000)" fill="#FFFFFF">
            <g id="Group" sketch:type="MSLayerGroup" transform="translate(980.000000, 44.000000)">
                <g id="galvanize-logo" transform="translate(59.000000, 83.000000)" sketch:type="MSShapeGroup">
                    <g id="Group">
                        <g transform="translate(2.588904, 19.747032)" id="Shape" fill-opacity="0.5">
                            <path d="M12.8718295,28.9837057 C16.9303626,28.9837057 19.5787967,27.2739419 20.020475,19.3125969 L5.65120668,19.3125969 C6.11742269,27.2492581 8.88363772,28.9837057 12.8718295,28.9837057 L12.8718295,28.9837057 Z"></path>
                            <g>
                                <path d="M11.1525557,15.5310404 C12.3303646,14.3478641 12.3303646,12.4356932 11.1525557,11.2492257 C9.97801848,10.0726317 8.07552996,10.0726317 6.89935692,11.2492257 C5.84096478,12.3188566 5.7379065,13.9808984 6.59181794,15.1640747 L5.93911552,16.4953538 L7.26251466,15.8404105 C8.43705185,16.6994064 10.0925277,16.5973801 11.1525557,15.5310404 L11.1525557,15.5310404 Z"></path>
                                <path d="M3.9793724,7.11222256 C3.15327034,6.28284723 1.81678443,6.28284723 0.990682363,7.11222256 C0.166216145,7.94488906 0.166216145,9.29097838 0.990682363,10.1236449 C1.73499214,10.8690953 2.89644257,10.9398555 3.72090879,10.3392166 L4.64843328,10.8049175 L4.19203234,9.8636423 C4.79565939,9.0309758 4.72368218,7.86096417 3.9793724,7.11222256 L3.9793724,7.11222256 Z"></path>
                                <path d="M7.82197388,2.55888618 C8.3454445,2.0290075 8.3454445,1.16672045 7.82197388,0.633550598 C7.29195989,0.11025426 6.43804845,0.11025426 5.91294199,0.633550598 C5.4369109,1.11570729 5.39274306,1.86115773 5.77062341,2.39103641 L5.47780704,2.98509295 L6.07325486,2.69546982 C6.60326886,3.08218252 7.3426711,3.0377517 7.82197388,2.55888618 L7.82197388,2.55888618 Z"></path>
                            </g>
                        </g>
                        <path d="M25.1858356,17.3016909 L25.1858356,21.9109772 C24.2452243,20.68337 23.273532,19.7634875 22.2674869,19.0410752 L18.8943731,22.4342735 C24.2419526,24.2115064 25.107315,30.3692891 25.107315,36.5402364 C25.107315,43.8515749 23.9180552,51.1678501 15.4623689,51.1678501 C7.00831847,51.1678501 5.74217392,43.8532205 5.74217392,36.5402364 C5.74217392,36.244031 5.7487173,35.9527623 5.751989,35.6532656 L0.249004161,41.1939536 C0.672688189,45.7703281 1.88812152,49.9073313 4.79174759,52.8348287 C6.84964144,54.9049759 10.2472929,56.3349901 14.199496,56.3349901 C18.3888968,56.3349901 21.9452253,55.3032077 25.1089508,51.2468383 L25.1089508,57.3700636 C25.1089508,64.0494971 21.9452253,69.3713221 14.4383295,69.3713221 C9.93157468,69.3713221 7.96038065,68.0252328 5.11237334,65.4795113 L1.40063951,69.1343577 C5.50661215,72.8698379 8.74558657,74.3821314 14.5953707,74.3821314 C24.7899609,74.3821314 30.7951504,67.3044661 30.7951504,57.6086736 L30.7951504,17.3016909 L25.1858356,17.3016909 L25.1858356,17.3016909 Z" id="Shape"></path>
                        <g transform="translate(41.849200, 0.000000)" id="Shape">
                            <path d="M24.9836308,56.4732193 L24.9836308,52.7574862 C21.8428071,55.9203024 19.0160658,56.9455025 13.8337067,56.9455025 C8.49430645,56.9455025 5.35348277,55.9203024 2.91934441,53.3910368 C1.0348502,51.4953217 0.0157183432,48.5727611 0.0157183432,45.4905785 C0.0157183432,38.6992452 4.72531803,34.2742646 13.364219,34.2742646 L24.9852667,34.2742646 L24.9852667,30.5618226 C24.9852667,24.8730319 22.1601612,22.031105 15.0900362,22.031105 C10.1448747,22.031105 7.63221578,23.2142813 5.35511861,26.45444 L1.5043379,22.8999743 C4.9608798,18.3976511 8.88854526,17.1338411 15.1701926,17.1338411 C25.5349108,17.1338411 30.6403851,21.6328732 30.6403851,30.0862483 L30.6403851,56.4732193 L24.9836308,56.4732193 L24.9836308,56.4732193 Z M24.9836308,38.5396234 L14.1494249,38.5396234 C8.33726527,38.5396234 5.51052395,40.9109128 5.51052395,45.4115904 C5.51052395,49.9172048 8.25874468,52.0482386 14.3833509,52.0482386 C17.6844874,52.0482386 20.5881135,51.8129198 23.0222519,49.4416304 C24.3571019,48.1778204 24.9836308,45.9645073 24.9836308,42.7276397 L24.9836308,38.5396234 L24.9836308,38.5396234 Z"></path>
                            <path d="M53.3164778,56.4732193 C46.562071,56.4732193 43.5014038,52.0482386 43.5014038,46.1241291 L43.5014038,0.22873645 L49.1565223,0.22873645 L49.1565223,45.8871648 C49.1565223,49.6802404 50.4128518,51.5759554 54.3388814,51.5759554 L57.3995486,51.5759554 L57.3995486,56.4748649 L53.3164778,56.4748649 L53.3164778,56.4732193 Z"></path>
                            <path d="M81.0489695,56.4732193 L76.0269233,56.4732193 L61.8915808,17.6061243 L68.0129153,17.6061243 L78.5379464,48.811371 L89.1382263,17.6061243 L95.2661042,17.6061243 L81.0489695,56.4732193 L81.0489695,56.4732193 Z"></path>
                            <path d="M125.136646,56.4732193 L125.136646,52.7574862 C121.992551,55.9203024 119.169081,56.9455025 113.98345,56.9455025 C108.64405,56.9455025 105.503226,55.9203024 103.069088,53.3910368 C101.184594,51.4953217 100.16219,48.5727611 100.16219,45.4905785 C100.16219,38.6992452 104.875062,34.2742646 113.513963,34.2742646 L125.136646,34.2742646 L125.136646,30.5618226 C125.136646,24.8730319 122.311541,22.031105 115.23978,22.031105 C110.294618,22.031105 107.781959,23.2142813 105.504862,26.45444 L101.654082,22.8999743 C105.110623,18.3976511 109.038289,17.1338411 115.319936,17.1338411 C125.68629,17.1338411 130.791765,21.6328732 130.791765,30.0862483 L130.791765,56.4732193 L125.136646,56.4732193 L125.136646,56.4732193 Z M125.136646,38.5396234 L114.299169,38.5396234 C108.487009,38.5396234 105.660268,40.9109128 105.660268,45.4115904 C105.660268,49.9172048 108.408488,52.0482386 114.533095,52.0482386 C117.832595,52.0482386 120.739493,51.8129198 123.175267,49.4416304 C124.510117,48.1778204 125.136646,45.9645073 125.136646,42.7276397 L125.136646,38.5396234 L125.136646,38.5396234 Z"></path>
                            <path d="M167.624466,56.4732193 L167.624466,32.5348802 C167.624466,25.6629132 163.930726,22.18579 158.121838,22.18579 C152.31295,22.18579 148.543962,25.7402557 148.543962,32.5348802 L148.543962,56.4732193 L142.888843,56.4732193 L142.888843,17.6061243 L148.543962,17.6061243 L148.543962,21.8714831 C151.292183,18.7119581 155.061171,17.1338411 159.374896,17.1338411 C163.541395,17.1338411 166.914509,18.3976511 169.273398,20.7656493 C172.021619,23.4528912 173.279584,27.0846995 173.279584,31.5903139 L173.279584,56.4732193 L167.624466,56.4732193 L167.624466,56.4732193 Z"></path>
                            <path d="M185.586051,56.4732193 L185.586051,17.6061243 L191.24117,17.6061243 L191.24117,56.4732193 L185.586051,56.4732193 L185.586051,56.4732193 Z"></path>
                            <path d="M202.309301,56.4732193 L202.309301,51.5743099 L223.823944,22.6613644 L203.483839,22.6613644 L203.483839,17.6061243 L230.341153,17.6061243 L230.341153,22.4244 L208.743083,51.414688 L230.341153,51.414688 L230.341153,56.4732193 L202.309301,56.4732193 L202.309301,56.4732193 Z"></path>
                            <path d="M243.185813,38.5396234 C243.185813,47.0703411 247.191999,51.9676049 254.572935,51.9676049 C259.045337,51.9676049 261.639788,50.6248068 264.700455,47.5442698 L268.547964,50.9407593 C264.625206,54.8901656 261.008352,56.9438569 254.412622,56.9438569 C244.208217,56.9438569 237.530695,50.782783 237.530695,37.038849 C237.530695,24.4780913 243.575144,17.1305499 253.390218,17.1305499 C263.365605,17.1305499 269.256286,24.3974576 269.256286,35.9297241 L269.256286,38.5363322 L243.185813,38.5363322 L243.185813,38.5396234 Z M262.42663,27.7988838 C260.931467,24.2444181 257.474925,21.9521168 253.391854,21.9521168 C249.308783,21.9521168 245.858785,24.2444181 244.361986,27.7988838 C243.499895,29.9332088 243.339583,31.1163851 243.185813,34.2759102 L263.601167,34.2759102 C263.44249,31.1147395 263.288721,29.9315632 262.42663,27.7988838 L262.42663,27.7988838 Z"></path>
                        </g>
                    </g>
                </g>
            </g>
        </g>
    </g>
</svg>