<svg width="156" height="234" viewBox="0 0 156 234" xmlns="http://www.w3.org/2000/svg"><title>Imported Layers</title><g fill="#9B9B9B" fill-rule="evenodd"><path d="M82.847 234H0V29.03h22.915v22.872h-4.407V33.43h-14.1V229.6h78.44V234M156 232.24h-4.407v-68.616H70.508V33.43H54.644V51.9h-4.407V29.03h24.678v130.196H156v73.015"/><path d="M34.373 136.353h4.407v12.316h-4.407v-12.317zM34.373 114.36h4.407v12.317h-4.407V114.36zM34.373 180.338h4.407v12.316h-4.407v-12.316zM34.373 158.346h4.407v12.316h-4.407v-12.316zM34.373 70.376h4.407v12.316h-4.407V70.376zM34.373 92.368h4.407v12.316h-4.407V92.368zM66.102 194.414h12.34v4.398H66.1v-4.398zM44.068 194.414h12.34v4.398h-12.34v-4.398zM88.136 194.414h12.34v4.398h-12.34v-4.398zM34.373 48.383h4.407V60.7h-4.407V48.382zM34.373 26.39h4.407v12.317h-4.407V26.39zM49.888 20.11l2.905-2.7L36.573 0 20.356 17.41l2.905 2.7L34.374 8.175v8.54h4.407V8.182L49.888 20.11"/></g></svg>