<?xml version="1.0" encoding="UTF-8" standalone="no"?>
<svg width="156px" height="234px" viewBox="0 0 156 234" version="1.1" xmlns="http://www.w3.org/2000/svg" xmlns:xlink="http://www.w3.org/1999/xlink">
    <!-- Generator: Sketch 3.6 (26304) - http://www.bohemiancoding.com/sketch -->
    <title>Imported Layers</title>
    <desc>Created with Sketch.</desc>
    <defs></defs>
    <g id="Final" stroke="none" stroke-width="1" fill="none" fill-rule="evenodd">
        <g id="v1" transform="translate(-172.000000, -666.000000)" fill="#9B9B9B">
            <g id="Knoll" transform="translate(40.000000, 44.000000)">
                <g id="Imported-Layers" transform="translate(132.000000, 622.000000)">
                    <path d="M82.8474576,234 L0,234 L0,29.0300752 L22.9152542,29.0300752 L22.9152542,51.9022556 L18.5084746,51.9022556 L18.5084746,33.4285714 L4.40677966,33.4285714 L4.40677966,229.601504 L82.8474576,229.601504 L82.8474576,234" id="Fill-1"></path>
                    <path d="M156,232.240602 L151.59322,232.240602 L151.59322,163.62406 L70.5084746,163.62406 L70.5084746,33.4285714 L54.6440678,33.4285714 L54.6440678,51.9022556 L50.2372881,51.9022556 L50.2372881,29.0300752 L74.9152542,29.0300752 L74.9152542,159.225564 L156,159.225564 L156,232.240602" id="Fill-2"></path>
                    <path d="M34.3728814,136.353383 L38.779661,136.353383 L38.779661,148.669173 L34.3728814,148.669173 L34.3728814,136.353383 Z" id="Fill-3"></path>
                    <path d="M34.3728814,114.360902 L38.779661,114.360902 L38.779661,126.676692 L34.3728814,126.676692 L34.3728814,114.360902 Z" id="Fill-4"></path>
                    <path d="M34.3728814,180.338346 L38.779661,180.338346 L38.779661,192.654135 L34.3728814,192.654135 L34.3728814,180.338346 Z" id="Fill-5"></path>
                    <path d="M34.3728814,158.345865 L38.779661,158.345865 L38.779661,170.661654 L34.3728814,170.661654 L34.3728814,158.345865 Z" id="Fill-6"></path>
                    <path d="M34.3728814,70.3759398 L38.779661,70.3759398 L38.779661,82.6917293 L34.3728814,82.6917293 L34.3728814,70.3759398 Z" id="Fill-7"></path>
                    <path d="M34.3728814,92.3684211 L38.779661,92.3684211 L38.779661,104.684211 L34.3728814,104.684211 L34.3728814,92.3684211 Z" id="Fill-8"></path>
                    <path d="M66.1016949,194.413534 L78.440678,194.413534 L78.440678,198.81203 L66.1016949,198.81203 L66.1016949,194.413534 Z" id="Fill-9"></path>
                    <path d="M44.0677966,194.413534 L56.4067797,194.413534 L56.4067797,198.81203 L44.0677966,198.81203 L44.0677966,194.413534 Z" id="Fill-10"></path>
                    <path d="M88.1355932,194.413534 L100.474576,194.413534 L100.474576,198.81203 L88.1355932,198.81203 L88.1355932,194.413534 Z" id="Fill-11"></path>
                    <path d="M34.3728814,48.3834586 L38.779661,48.3834586 L38.779661,60.6992481 L34.3728814,60.6992481 L34.3728814,48.3834586 Z" id="Fill-12"></path>
                    <path d="M34.3728814,26.3909774 L38.779661,26.3909774 L38.779661,38.7067669 L34.3728814,38.7067669 L34.3728814,26.3909774 Z" id="Fill-13"></path>
                    <path d="M49.8882712,20.1099248 L52.7932203,17.4101278 L36.5727458,0 L20.3557966,17.4101278 L23.2607458,20.1099248 L34.3728814,8.17504511 L34.3728814,16.7142857 L38.779661,16.7142857 L38.779661,8.18296241 L49.8882712,20.1099248" id="Fill-14"></path>
                </g>
            </g>
        </g>
    </g>
</svg>