<svg width="306" height="113" viewBox="0 0 306 113" xmlns="http://www.w3.org/2000/svg"><title>Imported Layers Copy 7</title><g fill="#FFF" fill-rule="evenodd"><path d="M0 107.777V.373l21.22-.01v40.894L61.718.237h28.548l-42.28 42.776 45.802 64.764H66.623L32.716 57.883l-11.5 11.544v38.35H0M94.778 107.777v-76.7h20.62v8.218s6.1-11.348 23.2-11.348c27.745 0 27.958 27.737 27.958 27.737v52.08h-22.01V59.35s-.01-13.146-13.482-12.62c-15.07.587-15.466 18.197-15.466 18.197v42.85h-20.82M253.55 70.102v-.09c0-18.21-11.845-42.066-41.39-42.066-29.533 0-41.628 23.773-41.628 42.067v.09-.113.084c0 18.294 12.095 42.067 41.63 42.067 29.543 0 41.388-23.856 41.388-42.066v-.084.112zm-21.537-.112v.084c0 20.055-10.868 25.818-19.852 25.818-9.01 0-20.016-6.042-20.016-25.818v-.084.112-.09c0-19.77 11.005-25.812 20.017-25.812 8.985 0 19.853 5.758 19.853 25.813v.09-.113zM257.158.37h21.414v107.405h-21.405L257.157.37M284.31.37l21.49.015V107.79h-21.49V.37"/></g></svg>