<?xml version="1.0" encoding="UTF-8" standalone="no"?>
<svg width="184px" height="68px" viewBox="0 0 184 68" version="1.1" xmlns="http://www.w3.org/2000/svg" xmlns:xlink="http://www.w3.org/1999/xlink" xmlns:sketch="http://www.bohemiancoding.com/sketch/ns">
    <!-- Generator: Sketch 3.3.3 (12072) - http://www.bohemiancoding.com/sketch -->
    <title>Imported Layers Copy 7</title>
    <desc>Created with Sketch.</desc>
    <defs></defs>
    <g id="Page-1" stroke="none" stroke-width="1" fill="none" fill-rule="evenodd" sketch:type="MSPage">
        <g id="v1-more-information" sketch:type="MSArtboardGroup" transform="translate(-162.000000, -118.000000)" fill="#FFFFFF">
            <g id="Group" sketch:type="MSLayerGroup" transform="translate(40.000000, 44.000000)">
                <g id="Imported-Layers-Copy-7" transform="translate(122.000000, 74.000000)" sketch:type="MSShapeGroup">
                    <path d="M0,64.8569415 L0,0.224261798 L12.7600836,0.218601579 L12.7600836,24.8270888 L37.1110081,0.143066926 L54.2768999,0.143066926 L28.8529836,25.8837932 L56.3946207,64.8569415 L40.060599,64.8569415 L19.6725697,34.832405 L12.7573167,41.7792509 L12.7573167,64.8569415 L0,64.8569415" id="Fill-1"></path>
                    <path d="M56.9907053,64.8569415 L56.9907053,18.7015603 L69.3904898,18.7015603 L69.3904898,23.6468354 C69.3904898,23.6468354 73.0581097,16.8176831 83.3399756,16.8176831 C100.023426,16.8176831 100.151102,33.5090847 100.151102,33.5090847 L100.151102,64.8485488 L86.9168784,64.8485488 L86.9168784,35.7153992 C86.9168784,35.7153992 86.9111468,27.804169 78.8094562,28.1209462 C69.7482196,28.4742219 69.5096672,39.0711286 69.5096672,39.0711286 L69.5096672,64.8569415 L56.9907053,64.8569415" id="Fill-2"></path>
                    <path d="M152.461476,42.1852252 L152.461476,42.1319411 C152.461476,31.1733659 145.339096,16.8170975 127.574155,16.8170975 C109.814945,16.8170975 102.541963,31.1228143 102.541963,42.1319411 L102.541963,42.1852252 L102.541963,42.1178881 L102.541963,42.1682446 C102.541963,53.1773714 109.814945,67.4830881 127.574155,67.4830881 C145.339096,67.4830881 152.461476,53.1268198 152.461476,42.1682446 L152.461476,42.1178881 L152.461476,42.1852252 L152.461476,42.1852252 Z M139.511262,42.1178881 L139.511262,42.1682446 C139.511262,54.2370035 132.97627,57.7047663 127.574155,57.7047663 C122.155042,57.7047663 115.537832,54.0687584 115.537832,42.1682446 L115.537832,42.1178881 L115.537832,42.1852252 L115.537832,42.1319411 C115.537832,30.2341598 122.155042,26.5981519 127.574155,26.5981519 C132.97627,26.5981519 139.511262,30.0631821 139.511262,42.1319411 L139.511262,42.1852252 L139.511262,42.1178881 L139.511262,42.1178881 Z" id="Fill-3"></path>
                    <path d="M154.630781,0.223481078 L167.507473,0.223481078 L167.507473,64.8559656 L154.636513,64.8559656 L154.630781,0.223481078" id="Fill-4"></path>
                    <path d="M170.957095,0.223481078 L183.879047,0.231873818 L183.879047,64.8643583 L170.957095,64.8643583 L170.957095,0.223481078" id="Fill-5"></path>
                </g>
            </g>
        </g>
    </g>
</svg>