<svg width="184" height="68" viewBox="0 0 184 68" xmlns="http://www.w3.org/2000/svg"><title>Imported Layers Copy 7</title><g fill="#FFF" fill-rule="evenodd"><path d="M0 64.857V.224L12.76.22v24.607L37.11.143h17.167l-25.424 25.74 27.542 38.974H40.06L19.674 34.832l-6.916 6.947v23.077H0M56.99 64.857V18.702h12.4v4.945s3.668-6.83 13.95-6.83c16.683 0 16.81 16.692 16.81 16.692v31.34H86.918V35.714s-.006-7.91-8.108-7.594c-9.062.354-9.3 10.95-9.3 10.95v25.787H56.99M152.46 42.185v-.053c0-10.96-7.12-25.315-24.886-25.315-17.76 0-25.032 14.306-25.032 25.315v.053-.067.05c0 11.01 7.273 25.315 25.032 25.315 17.765 0 24.887-14.356 24.887-25.315v-.05.067zm-12.95-.067v.05c0 12.07-6.534 15.537-11.936 15.537-5.42 0-12.036-3.636-12.036-15.537v-.05.067-.053c0-11.898 6.617-15.534 12.036-15.534 5.402 0 11.937 3.465 11.937 15.534v.053-.067zM154.63.223h12.877v64.633h-12.87L154.63.223M170.957.223l12.922.01v64.63h-12.923V.224"/></g></svg>