<?xml version="1.0" encoding="UTF-8" standalone="no"?>
<svg width="306px" height="113px" viewBox="0 0 306 113" version="1.1" xmlns="http://www.w3.org/2000/svg" xmlns:xlink="http://www.w3.org/1999/xlink" xmlns:sketch="http://www.bohemiancoding.com/sketch/ns">
    <!-- Generator: Sketch 3.3.3 (12072) - http://www.bohemiancoding.com/sketch -->
    <title>Imported Layers Copy 7</title>
    <desc>Created with Sketch.</desc>
    <defs></defs>
    <g id="Page-1" stroke="none" stroke-width="1" fill="none" fill-rule="evenodd" sketch:type="MSPage">
        <g id="v1" sketch:type="MSArtboardGroup" transform="translate(-101.000000, -172.000000)" fill="#FFFFFF">
            <g id="Knoll" sketch:type="MSLayerGroup" transform="translate(40.000000, 44.000000)">
                <g id="Imported-Layers-Copy-7" transform="translate(61.000000, 128.000000)" sketch:type="MSShapeGroup">
                    <path d="M0,107.776976 L0,0.372670341 L21.2205739,0.363264389 L21.2205739,41.2567799 L61.71722,0.237743569 L90.2648443,0.237743569 L47.9837663,43.012774 L93.7867062,107.776976 L66.6225179,107.776976 L32.7163387,57.8832612 L21.2159723,69.4272845 L21.2159723,107.776976 L0,107.776976" id="Fill-1"></path>
                    <path d="M94.7780208,107.776976 L94.7780208,31.0775928 L115.399402,31.0775928 L115.399402,39.2954765 C115.399402,39.2954765 121.498813,27.9470322 138.598003,27.9470322 C166.343307,27.9470322 166.555637,55.6842143 166.555637,55.6842143 L166.555637,107.76303 L144.546548,107.76303 L144.546548,59.3505899 C144.546548,59.3505899 144.537016,46.2039868 131.063552,46.7303958 C115.994322,47.317457 115.597599,64.9270226 115.597599,64.9270226 L115.597599,107.776976 L94.7780208,107.776976" id="Fill-2"></path>
                    <path d="M253.550064,70.1019184 L253.550064,70.0133727 C253.550064,51.8027992 241.705235,27.9460591 212.161366,27.9460591 C182.627029,27.9460591 170.531742,51.7187943 170.531742,70.0133727 L170.531742,70.1019184 L170.531742,69.99002 L170.531742,70.0737006 C170.531742,88.368279 182.627029,112.141014 212.161366,112.141014 C241.705235,112.141014 253.550064,88.2842741 253.550064,70.0737006 L253.550064,69.99002 L253.550064,70.1019184 L253.550064,70.1019184 Z M232.013295,69.99002 L232.013295,70.0737006 C232.013295,90.1291382 221.145319,95.8917439 212.161366,95.8917439 C203.149147,95.8917439 192.144438,89.8495544 192.144438,70.0737006 L192.144438,69.99002 L192.144438,70.1019184 L192.144438,70.0133727 C192.144438,50.2420597 203.149147,44.1998701 212.161366,44.1998701 C221.145319,44.1998701 232.013295,49.957935 232.013295,70.0133727 L232.013295,70.1019184 L232.013295,69.99002 L232.013295,69.99002 Z" id="Fill-3"></path>
                    <path d="M257.157713,0.371372969 L278.572211,0.371372969 L278.572211,107.775355 L257.167245,107.775355 L257.157713,0.371372969" id="Fill-4"></path>
                    <path d="M284.309082,0.371372969 L305.798849,0.385319726 L305.798849,107.789301 L284.309082,107.789301 L284.309082,0.371372969" id="Fill-5"></path>
                </g>
            </g>
        </g>
    </g>
</svg>