<?xml version="1.0" encoding="UTF-8" standalone="no"?>
<svg width="1584px" height="537px" viewBox="0 0 1584 537" version="1.1" xmlns="http://www.w3.org/2000/svg" xmlns:xlink="http://www.w3.org/1999/xlink">
    <!-- Generator: Sketch 3.7.2 (28276) - http://www.bohemiancoding.com/sketch -->
    <title>lobby-logo (002)</title>
    <desc>Created with Sketch.</desc>
    <defs></defs>
    <g id="Page-1" stroke="none" stroke-width="1" fill="none" fill-rule="evenodd">
        <g id="lobby-logo-(002)">
            <polygon id="Fill-2" fill="#9B1A31" points="0.4445 6.3982 32.5625 6.3982 179.3375 245.7942 179.3375 6.3982 205.1075 6.3982 205.1075 278.2852 172.8015 278.2852 26.0275 38.5182 26.0275 278.2852 0.4445 278.2852"></polygon>
            <polygon id="Fill-3" fill="#9B1A31" points="274.385 278.285 301.089 278.285 301.089 6.398 274.385 6.398"></polygon>
            <g id="Group-35" transform="translate(354.000000, 0.000000)"></g>
            <path d="M617.0453,76.7981 L584.9273,76.7981 C572.6033,59.7431 558.9713,47.3011 544.0323,39.4521 C529.0933,31.4841 511.9683,27.5091 492.6793,27.5011 C462.1723,27.5011 436.1533,38.7671 414.6243,61.3001 C393.2033,83.7071 382.5063,110.7841 382.5063,142.5291 C382.5063,174.5231 393.2673,201.7871 414.8103,224.3191 C436.4723,246.7281 462.4283,257.9321 492.6793,257.9321 C511.5933,257.9321 528.5243,254.0721 543.4713,246.3541 C558.5263,238.5101 571.7233,226.7471 583.0593,211.0611 L614.8053,211.0611 C602.1063,234.5911 585.3003,252.5791 564.3853,265.0281 C543.5873,277.4771 519.6853,283.7021 492.6793,283.7021 C453.7063,283.7021 420.9723,270.0071 394.4573,242.6201 C367.9403,215.1071 354.6823,181.1211 354.6823,140.6611 C354.6823,121.6151 358.2833,103.5641 365.5133,86.5091 C372.7253,69.4541 383.2443,54.0781 397.0703,40.3851 C410.1413,27.3131 424.6373,17.4791 440.5803,10.8811 C456.6393,4.2821 474.0063,0.9911 492.6793,0.9831 C519.6853,0.9831 543.9623,7.5821 565.5063,20.7781 C587.0353,33.8491 604.2143,52.5231 617.0453,76.7981 L617.0453,76.7981 Z" id="Fill-4" fill="#9B1A31"></path>
            <polygon id="Fill-6" fill="#9B1A31" points="681.2832 6.3982 707.9852 6.3982 707.9852 128.3372 838.1402 128.3372 838.1402 6.3982 864.0962 6.3982 864.0962 278.2852 838.1402 278.2852 838.1402 153.9212 707.9852 153.9212 707.9852 278.2852 681.2832 278.2852"></polygon>
            <path d="M1069.1326,0.9834 C1088.1796,0.9834 1105.7876,4.3444 1121.9786,11.0674 C1138.2796,17.6654 1153.1566,27.5624 1166.6086,40.7584 C1180.1706,53.9544 1190.5026,69.0794 1197.6066,86.1344 C1204.7026,103.0654 1208.2516,121.2414 1208.2516,140.6614 C1208.2516,159.9584 1205.2636,177.6974 1199.2876,193.8824 C1193.3126,209.9414 1184.3486,224.5674 1172.3976,237.7644 C1158.5796,252.9524 1142.9476,264.4044 1125.5276,272.1234 C1108.0896,279.8424 1089.1676,283.7014 1068.7596,283.7014 C1029.6626,283.7014 996.8666,270.0074 970.3496,242.6204 C943.8326,215.1074 930.5746,181.1214 930.5746,140.6614 C930.5746,121.6144 934.1776,103.5634 941.4056,86.5084 C948.6176,69.4534 959.2006,54.0784 973.1516,40.3854 C986.0906,27.4384 1000.5926,17.6654 1016.6596,11.0674 C1032.8366,4.3444 1050.3266,0.9834 1069.1326,0.9834 M1068.7596,26.9394 C1038.2506,26.9394 1012.2326,38.2674 990.7036,60.9254 C969.2836,83.4584 958.5846,110.6594 958.5846,142.5294 C958.5846,174.7714 969.4156,202.0354 991.0776,224.3194 C1012.7376,246.4784 1039.2546,257.5594 1070.6276,257.5594 C1101.4926,257.5594 1127.5736,246.2914 1148.8686,223.7594 C1170.1576,201.1024 1180.8006,173.2784 1180.8006,140.2884 C1180.8006,109.4154 1169.8376,82.8354 1147.9346,60.5524 C1126.0166,38.1434 1099.6256,26.9394 1068.7596,26.9394" id="Fill-8" fill="#9B1A31"></path>
            <polygon id="Fill-10" fill="#9B1A31" points="1270.6198 6.3982 1297.5098 6.3982 1297.5098 251.9562 1393.1188 251.9562 1393.1188 278.2852 1270.6198 278.2852"></polygon>
            <path d="M1578.1737,73.251 L1552.5917,73.251 C1551.2137,58.436 1546.8027,47.045 1539.3327,39.077 C1531.8637,30.986 1521.8347,26.948 1509.2687,26.94 C1495.6907,26.94 1484.6187,31.296 1476.0307,40.011 C1467.5557,48.601 1463.3317,59.681 1463.3317,73.251 C1463.3317,80.471 1464.6387,86.819 1467.2537,92.298 C1469.9847,97.65 1474.0307,102.257 1479.3907,106.116 C1485.2337,110.473 1496.3757,115.204 1512.8177,120.308 C1521.9047,123.296 1528.8687,125.723 1533.7317,127.59 C1550.0317,134.437 1562.4177,144.086 1570.8917,156.534 C1579.4817,168.86 1583.7767,183.861 1583.7767,201.537 C1583.8927,224.07 1576.7347,243.428 1562.3007,259.613 C1547.8527,275.672 1528.8057,283.702 1505.1607,283.702 C1482.9937,283.702 1464.8807,276.045 1450.8197,260.733 C1436.8687,245.42 1429.7187,225.377 1429.3457,200.603 L1455.6747,200.603 C1456.0497,217.66 1460.7717,231.415 1469.8667,241.873 C1478.9477,252.205 1491.1477,257.371 1506.4677,257.371 C1521.5227,257.371 1533.6617,252.205 1542.8817,241.873 C1552.0857,231.415 1556.6917,217.66 1556.6997,200.603 C1556.6997,174.709 1537.5197,156.037 1499.1847,144.583 C1496.3137,143.711 1494.1977,143.028 1492.8367,142.529 C1473.0427,136.056 1458.7167,127.466 1449.8857,116.759 C1441.0407,106.053 1436.6287,92.236 1436.6287,75.305 C1436.6287,53.643 1443.3507,35.903 1456.7957,22.084 C1470.3577,8.266 1487.8487,1.356 1509.2687,1.356 C1529.6777,1.356 1545.9237,7.644 1558.0067,20.217 C1570.0737,32.791 1576.7967,50.469 1578.1737,73.251" id="Fill-12" fill="#9B1A31"></path>
            <path d="M0.4445,345.6882 L43.7155,345.6882 C66.7235,345.6882 83.5515,349.9392 94.1965,358.4382 C104.8435,366.9372 110.1655,380.2452 110.1655,398.3602 C110.1655,416.2182 104.3705,430.0402 92.7805,439.8272 C81.2755,449.5302 64.8345,454.3802 43.4565,454.3802 L18.8595,454.3802 L18.8595,533.1932 L0.4445,533.1932 L0.4445,345.6882 Z M18.8595,364.1042 L18.8595,435.5772 L46.0325,435.5772 C61.4005,435.5772 72.6045,432.5302 79.6445,426.4342 C86.7705,420.3392 90.3325,410.7282 90.3325,397.5872 C90.3325,385.4822 87.0715,376.8972 80.5455,371.8312 C74.0215,366.6802 62.0015,364.1042 44.4875,364.1042 L18.8595,364.1042 Z" id="Fill-14" fill="#9B1A31"></path>
            <path d="M194.9677,345.6882 L217.5047,345.6882 L289.7507,533.1932 L269.9187,533.1932 L247.7677,474.3412 L164.1897,474.3412 L141.7817,533.1932 L122.4647,533.1932 L194.9677,345.6882 Z M205.7857,363.3312 L170.4997,457.4702 L241.4577,457.4702 L205.7857,363.3312 Z" id="Fill-16" fill="#9B1A31"></path>
            <path d="M326.7112,345.6882 L377.0642,345.6882 C399.3012,345.6882 416.4612,350.7542 428.5772,360.8852 C440.6832,371.0152 446.7352,385.3532 446.7352,403.8972 C446.7352,419.0932 442.4432,431.9722 433.8572,442.5322 C425.2612,453.0072 414.3152,458.8012 401.0182,459.9182 L446.9932,533.1932 L424.5852,533.1932 L369.2092,442.7902 L386.8522,442.7902 C398.7002,442.7902 408.3162,439.3132 415.6992,432.3592 C423.1692,425.4042 426.9032,416.4752 426.9032,405.5722 C426.9032,390.8902 422.7392,380.3312 414.4112,373.8912 C406.0732,367.3672 391.9602,364.1092 372.0422,364.1042 L345.1272,364.1042 L345.1272,533.1932 L326.7112,533.1932 L326.7112,345.6882 Z" id="Fill-18" fill="#9B1A31"></path>
            <polygon id="Fill-20" fill="#9B1A31" points="476.2584 345.6882 570.1404 345.6882 570.1404 364.1042 532.4074 364.1042 532.4074 533.1932 513.9914 533.1932 513.9914 364.1042 476.2584 364.1042"></polygon>
            <polygon id="Fill-22" fill="#9B1A31" points="605.9413 345.6882 628.0913 345.6882 729.3143 510.7862 729.3143 345.6882 747.0853 345.6882 747.0853 533.1932 724.8063 533.1932 623.5843 367.8392 623.5843 533.1932 605.9413 533.1932"></polygon>
            <polygon id="Fill-24" fill="#9B1A31" points="796.4085 345.6882 894.0245 345.6882 894.0245 363.5892 814.8245 363.5892 814.8245 430.0402 893.7675 430.0402 893.7675 447.9402 814.8245 447.9402 814.8245 515.2932 893.7675 515.2932 893.7675 533.1932 796.4085 533.1932"></polygon>
            <path d="M937.295,345.6882 L987.649,345.6882 C1009.885,345.6882 1027.056,350.7542 1039.162,360.8852 C1051.267,371.0152 1057.319,385.3532 1057.319,403.8972 C1057.319,419.0932 1053.027,431.9722 1044.441,442.5322 C1035.856,453.0072 1024.91,458.8012 1011.603,459.9182 L1057.578,533.1932 L1035.169,533.1932 L979.793,442.7902 L997.436,442.7902 C1009.284,442.7902 1018.9,439.3132 1026.283,432.3592 C1033.753,425.4042 1037.487,416.4752 1037.487,405.5722 C1037.487,390.8902 1033.323,380.3312 1024.995,373.8912 C1016.668,367.3672 1002.544,364.1092 982.626,364.1042 L955.711,364.1042 L955.711,533.1932 L937.295,533.1932 L937.295,345.6882 Z" id="Fill-26" fill="#9B1A31"></path>
            <path d="M1190.2223,391.7929 L1172.5793,391.7929 C1171.6353,381.5759 1168.5863,373.7199 1163.4363,368.2249 C1158.2843,362.6449 1151.3733,359.8599 1142.7013,359.8549 C1133.3433,359.8549 1125.7033,362.8589 1119.7783,368.8689 C1113.9413,374.7939 1111.0213,382.4339 1111.0213,391.7929 C1111.0213,396.7719 1111.9233,401.1499 1113.7253,404.9289 C1115.6143,408.6199 1118.4043,411.7969 1122.0963,414.4579 C1126.1313,417.4629 1133.8163,420.7259 1145.1483,424.2459 C1151.4153,426.3059 1156.2233,427.9799 1159.5723,429.2679 C1170.8183,433.9899 1179.3613,440.6439 1185.1993,449.2289 C1191.1233,457.7289 1194.0853,468.0739 1194.0853,480.2649 C1194.1703,495.8049 1189.2343,509.1549 1179.2763,520.3169 C1169.3163,531.3919 1156.1803,536.9289 1139.8683,536.9289 C1124.5863,536.9289 1112.0943,531.6489 1102.3933,521.0889 C1092.7773,510.5279 1087.8413,496.7059 1087.5833,479.6209 L1105.7423,479.6209 C1105.9993,491.3839 1109.2613,500.8699 1115.5293,508.0819 C1121.7963,515.2079 1130.2093,518.7699 1140.7703,518.7699 C1151.1583,518.7699 1159.5293,515.2079 1165.8823,508.0819 C1172.2353,500.8699 1175.4123,491.3839 1175.4123,479.6209 C1175.4123,461.7629 1162.1903,448.8859 1135.7473,440.9869 C1133.7723,440.3859 1132.3133,439.9139 1131.3693,439.5699 C1117.7183,435.1059 1107.8453,429.1819 1101.7493,421.7979 C1095.6533,414.4149 1092.6063,404.8859 1092.6063,393.2099 C1092.6063,378.2709 1097.2413,366.0359 1106.5143,356.5059 C1115.8713,346.9759 1127.9343,342.2109 1142.7013,342.2109 C1156.7813,342.2109 1167.9853,346.5479 1176.3133,355.2179 C1184.6423,363.8899 1189.2773,376.0819 1190.2223,391.7929" id="Fill-28" fill="#9B1A31"></path>
            <polygon id="Fill-30" fill="#9B1A31" points="1234.2654 345.6882 1252.6814 345.6882 1252.6814 429.7832 1342.4414 429.7832 1342.4414 345.6882 1360.3414 345.6882 1360.3414 533.1932 1342.4414 533.1932 1342.4414 447.4262 1252.6814 447.4262 1252.6814 533.1932 1234.2654 533.1932"></polygon>
            <polygon id="Fill-32" fill="#9B1A31" points="1407.863 533.193 1426.278 533.193 1426.278 345.688 1407.863 345.688"></polygon>
            <path d="M1474.0559,345.6882 L1517.3269,345.6882 C1540.3349,345.6882 1557.1629,349.9392 1567.8079,358.4382 C1578.4549,366.9372 1583.7779,380.2452 1583.7779,398.3602 C1583.7779,416.2182 1577.9819,430.0402 1566.3919,439.8272 C1554.8879,449.5302 1538.4469,454.3802 1517.0689,454.3802 L1492.4719,454.3802 L1492.4719,533.1932 L1474.0559,533.1932 L1474.0559,345.6882 Z M1492.4719,364.1042 L1492.4719,435.5772 L1519.6439,435.5772 C1535.0129,435.5772 1546.2159,432.5302 1553.2559,426.4342 C1560.3829,420.3392 1563.9449,410.7282 1563.9449,397.5872 C1563.9449,385.4822 1560.6829,376.8972 1554.1579,371.8312 C1547.6329,366.6802 1535.6139,364.1042 1518.0989,364.1042 L1492.4719,364.1042 Z" id="Fill-34" fill="#9B1A31"></path>
        </g>
    </g>
</svg>