<?xml version="1.0" encoding="UTF-8" standalone="no"?>
<svg
   xmlns:dc="http://purl.org/dc/elements/1.1/"
   xmlns:cc="http://creativecommons.org/ns#"
   xmlns:rdf="http://www.w3.org/1999/02/22-rdf-syntax-ns#"
   xmlns:svg="http://www.w3.org/2000/svg"
   xmlns="http://www.w3.org/2000/svg"
   viewBox="0 0 368.30667 23.653334"
   height="23.653334"
   width="368.30667"
   xml:space="preserve"
   id="svg2"
   version="1.1"><metadata
     id="metadata8"><rdf:RDF><cc:Work
         rdf:about=""><dc:format>image/svg+xml</dc:format><dc:type
           rdf:resource="http://purl.org/dc/dcmitype/StillImage" /></cc:Work></rdf:RDF></metadata><defs
     id="defs6" /><g
     transform="matrix(1.3333333,0,0,-1.3333333,0,23.653333)"
     id="g10"><g
       transform="scale(0.1)"
       id="g12"><path
         id="path14"
         style="fill:#b40d34;fill-opacity:1;fill-rule:nonzero;stroke:none"
         d="M 0,174.023 H 20.1562 L 112.266,23.7891 V 174.023 h 16.172 V 3.39844 H 108.164 L 16.0547,153.867 V 3.39844 H 0 V 174.023" /><path
         id="path16"
         style="fill:#b40d34;fill-opacity:1;fill-rule:nonzero;stroke:none"
         d="m 171.914,174.023 h 16.758 V 3.39844 H 171.914 V 174.023" /><path
         id="path18"
         style="fill:#b40d34;fill-opacity:1;fill-rule:nonzero;stroke:none"
         d="m 386.953,129.844 h -20.156 c -7.735,10.703 -16.289,18.511 -25.664,23.437 -9.375,5 -20.121,7.496 -32.227,7.5 -19.144,0 -35.472,-7.07 -48.984,-21.211 -13.442,-14.062 -20.156,-31.054 -20.156,-50.9762 0,-20.0782 6.754,-37.1876 20.273,-51.3282 13.594,-14.0625 29.883,-21.0937 48.867,-21.0937 11.871,0 22.496,2.4219 31.875,7.2656 9.449,4.9219 17.731,12.3047 24.844,22.1484 h 19.922 C 377.578,30.8203 367.031,19.5312 353.906,11.7188 340.855,3.90625 325.855,0 308.906,0 c -24.457,0 -45,8.59375 -61.64,25.7812 -16.641,17.2657 -24.961,38.5938 -24.961,63.9844 0,11.9534 2.261,23.2814 6.797,33.9844 4.527,10.703 11.128,20.352 19.804,28.945 8.203,8.203 17.301,14.375 27.305,18.516 10.078,4.141 20.977,6.207 32.695,6.211 16.949,0 32.184,-4.141 45.703,-12.422 13.512,-8.203 24.293,-19.922 32.344,-35.156 v 0" /><path
         id="path20"
         style="fill:#b40d34;fill-opacity:1;fill-rule:nonzero;stroke:none"
         d="m 427.266,174.023 h 16.757 V 97.5 h 81.68 v 76.523 h 16.289 V 3.39844 H 525.703 V 81.4453 h -81.68 V 3.39844 H 427.266 V 174.023" /><path
         id="path22"
         style="fill:#b40d34;fill-opacity:1;fill-rule:evenodd;stroke:none"
         d="m 670.664,177.422 c 11.953,0 23.004,-2.11 33.164,-6.328 10.231,-4.141 19.567,-10.352 28.008,-18.633 8.512,-8.281 14.996,-17.773 19.453,-28.477 4.453,-10.625 6.68,-22.031 6.68,-34.2184 0,-12.1094 -1.875,-23.2422 -5.625,-33.3984 C 748.594,46.2891 742.969,37.1094 735.469,28.8281 726.797,19.2969 716.988,12.1094 706.055,7.26562 695.113,2.42188 683.238,0 670.43,0 645.895,0 625.312,8.59375 608.672,25.7812 592.031,43.0469 583.711,64.375 583.711,89.7656 c 0,11.9534 2.262,23.2814 6.797,33.9844 4.527,10.703 11.168,20.352 19.922,28.945 8.121,8.125 17.222,14.258 27.304,18.399 10.153,4.218 21.129,6.328 32.93,6.328 z m -0.234,-16.289 c -19.145,0 -35.473,-7.11 -48.985,-21.328 -13.441,-14.141 -20.156,-31.211 -20.156,-51.2112 0,-20.2344 6.797,-37.3438 20.391,-51.3282 13.593,-13.9062 30.234,-20.8594 49.922,-20.8594 19.371,0 35.738,7.0704 49.101,21.211 13.359,14.2187 20.039,31.6797 20.039,52.3828 0,19.375 -6.879,36.055 -20.625,50.039 -13.754,14.063 -30.316,21.094 -49.687,21.094 v 0" /><path
         id="path24"
         style="fill:#b40d34;fill-opacity:1;fill-rule:nonzero;stroke:none"
         d="m 797.109,174.023 h 16.875 V 19.9219 h 60 V 3.39844 H 797.109 V 174.023" /><path
         id="path26"
         style="fill:#b40d34;fill-opacity:1;fill-rule:nonzero;stroke:none"
         d="m 990.117,132.07 h -16.055 c -0.863,9.297 -3.632,16.446 -8.32,21.446 -4.687,5.078 -10.98,7.613 -18.867,7.617 -8.52,0 -15.469,-2.735 -20.859,-8.203 -5.317,-5.391 -7.969,-12.344 -7.969,-20.86 0,-4.531 0.82,-8.515 2.461,-11.953 1.715,-3.359 4.254,-6.25 7.617,-8.672 3.668,-2.734 10.66,-5.703 20.977,-8.906 5.703,-1.875 10.074,-3.3984 13.125,-4.5702 10.23,-4.2969 18.003,-10.3516 23.32,-18.1641 5.391,-7.7344 8.086,-17.1485 8.086,-28.2422 C 993.707,37.4219 989.215,25.2734 980.156,15.1172 971.09,5.03906 959.137,0 944.297,0 c -13.91,0 -25.277,4.80469 -34.102,14.4141 -8.754,9.6093 -13.242,22.1875 -13.476,37.7343 h 16.523 c 0.235,-10.7031 3.199,-19.3359 8.906,-25.8984 5.7,-6.4844 13.356,-9.7266 22.969,-9.7266 9.449,0 17.067,3.2422 22.852,9.7266 5.777,6.5625 8.668,15.1953 8.672,25.8984 0,16.25 -12.036,27.9688 -36.094,35.1563 -1.801,0.5469 -3.129,0.9765 -3.985,1.2891 -12.421,4.0624 -21.41,9.4531 -26.953,16.1722 -5.55,6.718 -8.32,15.39 -8.32,26.015 0,13.594 4.219,24.727 12.656,33.399 8.512,8.672 19.489,13.008 32.93,13.008 12.809,0 23.004,-3.946 30.586,-11.836 7.574,-7.891 11.793,-18.985 12.656,-33.282 v 0" /><path
         id="path28"
         style="fill:#b40d34;fill-opacity:1;fill-rule:evenodd;stroke:none"
         d="m 1321.47,174.023 h 39.38 c 20.94,0 36.25,-3.867 45.94,-11.601 9.68,-7.734 14.53,-19.844 14.53,-36.328 0,-16.25 -5.28,-28.8284 -15.82,-37.7346 -10.47,-8.8282 -25.43,-13.2422 -44.88,-13.2422 h -22.39 V 3.39844 h -16.76 z m 16.76,-16.757 V 92.2266 h 24.73 c 13.98,0 24.18,2.7734 30.58,8.3204 6.49,5.547 9.73,14.293 9.73,26.25 0,11.015 -2.97,18.828 -8.9,23.437 -5.94,4.688 -16.88,7.032 -32.82,7.032 h -23.32 v 0" /><path
         id="path30"
         style="fill:#b40d34;fill-opacity:1;fill-rule:evenodd;stroke:none"
         d="m 1498.49,174.023 h 20.5 L 1584.74,3.39844 h -18.05 l -20.16,53.55466 h -76.05 L 1450.09,3.39844 h -17.58 l 65.98,170.62456 z m 9.84,-16.054 -32.11,-85.6643 h 64.57 l -32.46,85.6643 v 0" /><path
         id="path32"
         style="fill:#b40d34;fill-opacity:1;fill-rule:nonzero;stroke:none"
         d="m 1618.37,174.023 h 45.82 c 20.23,0 35.85,-4.609 46.87,-13.828 11.02,-9.218 16.53,-22.265 16.53,-39.14 0,-13.828 -3.91,-25.5472 -11.72,-35.1566 -7.82,-9.5312 -17.78,-14.8046 -29.88,-15.8203 l 41.83,-66.67966 h -20.39 l -50.39,82.26566 h 16.06 c 10.78,0 19.53,3.164 26.25,9.4921 6.79,6.3278 10.19,14.4528 10.19,24.3748 0,13.36 -3.79,22.969 -11.37,28.828 -7.58,5.938 -20.43,8.903 -38.55,8.907 h -24.49 V 3.39844 h -16.76 V 174.023" /><path
         id="path34"
         style="fill:#b40d34;fill-opacity:1;fill-rule:nonzero;stroke:none"
         d="m 1754.45,174.023 h 85.43 v -16.757 h -34.33 V 3.39844 h -16.76 V 157.266 h -34.34 v 16.757" /><path
         id="path36"
         style="fill:#b40d34;fill-opacity:1;fill-rule:nonzero;stroke:none"
         d="m 1872.46,174.023 h 20.16 L 1984.73,23.7891 V 174.023 h 16.17 V 3.39844 h -20.27 L 1888.52,153.867 V 3.39844 h -16.06 V 174.023" /><path
         id="path38"
         style="fill:#b40d34;fill-opacity:1;fill-rule:nonzero;stroke:none"
         d="m 2045.78,174.023 h 88.83 v -16.289 h -72.07 V 97.2656 h 71.84 v -16.289 h -71.84 V 19.6875 h 71.84 V 3.39844 h -88.6 V 174.023" /><path
         id="path40"
         style="fill:#b40d34;fill-opacity:1;fill-rule:nonzero;stroke:none"
         d="m 2173.98,174.023 h 45.82 c 20.24,0 35.86,-4.609 46.88,-13.828 11.02,-9.218 16.52,-22.265 16.52,-39.14 0,-13.828 -3.9,-25.5472 -11.72,-35.1566 -7.81,-9.5312 -17.77,-14.8046 -29.88,-15.8203 l 41.84,-66.67966 h -20.39 l -50.39,82.26566 h 16.05 c 10.78,0 19.53,3.164 26.25,9.4921 6.8,6.3278 10.2,14.4528 10.2,24.3748 0,13.36 -3.79,22.969 -11.37,28.828 -7.58,5.938 -20.43,8.903 -38.56,8.907 h -24.49 V 3.39844 h -16.76 V 174.023" /><path
         id="path42"
         style="fill:#b40d34;fill-opacity:1;fill-rule:nonzero;stroke:none"
         d="m 2404.14,132.07 h -16.05 c -0.86,9.297 -3.64,16.446 -8.32,21.446 -4.69,5.078 -10.98,7.613 -18.87,7.617 -8.52,0 -15.47,-2.735 -20.86,-8.203 -5.31,-5.391 -7.97,-12.344 -7.97,-20.86 0,-4.531 0.82,-8.515 2.46,-11.953 1.72,-3.359 4.26,-6.25 7.62,-8.672 3.67,-2.734 10.66,-5.703 20.98,-8.906 5.7,-1.875 10.07,-3.3984 13.12,-4.5702 10.23,-4.2969 18.01,-10.3516 23.32,-18.1641 5.39,-7.7344 8.09,-17.1485 8.09,-28.2422 0.07,-14.1406 -4.42,-26.2891 -13.48,-36.4453 C 2385.12,5.03906 2373.16,0 2358.32,0 c -13.91,0 -25.27,4.80469 -34.1,14.4141 -8.75,9.6093 -13.24,22.1875 -13.48,37.7343 h 16.53 c 0.23,-10.7031 3.2,-19.3359 8.9,-25.8984 5.71,-6.4844 13.36,-9.7266 22.97,-9.7266 9.45,0 17.07,3.2422 22.85,9.7266 5.78,6.5625 8.67,15.1953 8.67,25.8984 0,16.25 -12.03,27.9688 -36.09,35.1563 -1.8,0.5469 -3.12,0.9765 -3.98,1.2891 -12.43,4.0624 -21.41,9.4531 -26.96,16.1722 -5.54,6.718 -8.32,15.39 -8.32,26.015 0,13.594 4.22,24.727 12.66,33.399 8.51,8.672 19.49,13.008 32.93,13.008 12.81,0 23.01,-3.946 30.58,-11.836 7.58,-7.891 11.8,-18.985 12.66,-33.282 v 0" /><path
         id="path44"
         style="fill:#b40d34;fill-opacity:1;fill-rule:nonzero;stroke:none"
         d="m 2444.22,174.023 h 16.76 V 97.5 h 81.68 v 76.523 h 16.29 V 3.39844 h -16.29 V 81.4453 h -81.68 V 3.39844 h -16.76 V 174.023" /><path
         id="path46"
         style="fill:#b40d34;fill-opacity:1;fill-rule:nonzero;stroke:none"
         d="m 2602.19,174.023 h 16.76 V 3.39844 h -16.76 V 174.023" /><path
         id="path48"
         style="fill:#b40d34;fill-opacity:1;fill-rule:evenodd;stroke:none"
         d="m 2662.42,174.023 h 39.38 c 20.93,0 36.25,-3.867 45.93,-11.601 9.69,-7.734 14.54,-19.844 14.54,-36.328 0,-16.25 -5.28,-28.8284 -15.82,-37.7346 -10.47,-8.8282 -25.43,-13.2422 -44.89,-13.2422 h -22.38 V 3.39844 h -16.76 z m 16.76,-16.757 V 92.2266 h 24.73 c 13.98,0 24.18,2.7734 30.58,8.3204 6.49,5.547 9.73,14.293 9.73,26.25 0,11.015 -2.97,18.828 -8.91,23.437 -5.93,4.688 -16.87,7.032 -32.81,7.032 h -23.32 v 0" /><path
         id="path50"
         style="fill:#231f20;fill-opacity:1;fill-rule:nonzero;stroke:none"
         d="m 1231.93,162.07 c 0,-4.761 0,-146.2692 0,-151.0348 -4.76,0 -146.29,0 -151.05,0 0,4.7656 0,146.2738 0,151.0348 4.76,0 146.29,0 151.05,0 z m 2.5,5 H 1075.88 V 6.03516 h 161.05 V 167.07 h -2.5" /><path
         id="path52"
         style="fill:#231f20;fill-opacity:1;fill-rule:evenodd;stroke:none"
         d="M 1156.41,163.715 V 8.30078" /><path
         id="path54"
         style="fill:#231f20;fill-opacity:1;fill-rule:evenodd;stroke:none"
         d="m 1153.91,8.30078 h 5 v 155.414 h -5 z" /><path
         id="path56"
         style="fill:#ffffff;fill-opacity:1;fill-rule:evenodd;stroke:none"
         d="M 1234.46,161.328 1156.05,82.9219" /><path
         id="path58"
         style="fill:#231f20;fill-opacity:1;fill-rule:evenodd;stroke:none"
         d="m 1154.28,84.6875 3.54,-3.5352 78.41,78.4097 -3.54,3.536 -78.41,-78.4105" /><path
         id="path60"
         style="fill:#231f20;fill-opacity:1;fill-rule:nonzero;stroke:none"
         d="m 1076.37,85.2266 77.97,-77.96879 3.54,3.53519 -77.97,77.9687 -3.54,-3.5351" /><path
         id="path62"
         style="fill:#ffffff;fill-opacity:1;fill-rule:evenodd;stroke:none"
         d="M 1234.46,87.2656 1156.05,8.86719" /><path
         id="path64"
         style="fill:#231f20;fill-opacity:1;fill-rule:evenodd;stroke:none"
         d="m 1154.28,10.6367 3.54,-3.53514 78.41,78.39844 -3.54,3.5352 -78.41,-78.3985" /><path
         id="path66"
         style="fill:#231f20;fill-opacity:1;fill-rule:nonzero;stroke:none"
         d="M 1106.08,133.918 V 57.793 L 1155.87,7.98828 V 84.8438 l -49.79,49.0742 v 0" /><path
         id="path68"
         style="fill:#231f20;fill-opacity:1;fill-rule:nonzero;stroke:none"
         d="M 1206.68,130.859 V 58.4961 L 1156.89,8.71094 V 81.7773 l 49.79,49.0817 v 0" /><path
         id="path70"
         style="fill:#231f20;fill-opacity:1;fill-rule:nonzero;stroke:none"
         d="m 1156.41,134.586 14.84,-14.84 -14.84,-14.84 -14.84,14.84 14.84,14.84 v 0" /><path
         id="path72"
         style="fill:#231f20;fill-opacity:1;fill-rule:nonzero;stroke:none"
         d="m 1096.14,163.332 58.93,-58.926 3.53,3.535 -58.92,58.926 -3.54,-3.535" /><path
         id="path74"
         style="fill:#ffffff;fill-opacity:1;fill-rule:evenodd;stroke:none"
         d="m 1215.1,165.078 -58.67,-58.676" /><path
         id="path76"
         style="fill:#231f20;fill-opacity:1;fill-rule:evenodd;stroke:none"
         d="m 1154.66,108.168 3.53,-3.535 58.68,58.679 -3.54,3.536 -58.67,-58.68" /><path
         id="path78"
         style="fill:#231f20;fill-opacity:1;fill-rule:nonzero;stroke:none"
         d="m 1216.6,146.75 c 0,-4.508 0,-116.8672 0,-121.3789 -4.51,0 -116.86,0 -121.37,0 0,4.5117 0,116.8709 0,121.3789 4.51,0 116.86,0 121.37,0 z m 2.38,4.773 H 1090.45 V 20.6055 h 130.92 V 151.523 h -2.39" /><path
         id="path80"
         style="fill:#ffffff;fill-opacity:1;fill-rule:nonzero;stroke:none"
         d="M 1138.6,72.3633 V 55.4297 l 15.41,-15.4102 v 17.168 l -15.41,15.1758 v 0" /><path
         id="path82"
         style="fill:#ffffff;fill-opacity:1;fill-rule:nonzero;stroke:none"
         d="M 1138.6,96.8164 V 79.8633 l 15.41,-15.4102 v 17.1797 l -15.41,15.1836 v 0" /><path
         id="path84"
         style="fill:#ffffff;fill-opacity:1;fill-rule:nonzero;stroke:none"
         d="M 1138.6,47.9297 V 30.9766 l 15.41,-15.4102 v 17.168 l -15.41,15.1953 v 0" /><path
         id="path86"
         style="fill:#ffffff;fill-opacity:1;fill-rule:nonzero;stroke:none"
         d="M 1173.96,72.3633 V 55.4297 l -15.41,-15.4102 v 17.168 l 15.41,15.1758 v 0" /><path
         id="path88"
         style="fill:#ffffff;fill-opacity:1;fill-rule:nonzero;stroke:none"
         d="M 1173.96,96.8164 V 79.8633 l -15.41,-15.4102 v 17.1797 l 15.41,15.1836 v 0" /><path
         id="path90"
         style="fill:#ffffff;fill-opacity:1;fill-rule:nonzero;stroke:none"
         d="M 1173.96,47.9297 V 30.9766 l -15.41,-15.4102 v 17.168 l 15.41,15.1953 v 0" /><path
         id="path92"
         style="fill:#ffffff;fill-opacity:1;fill-rule:evenodd;stroke:none"
         d="m 1077.64,161.328 78.41,-78.4061" /><path
         id="path94"
         style="fill:#231f20;fill-opacity:1;fill-rule:evenodd;stroke:none"
         d="m 1075.87,159.562 78.41,-78.4097 3.54,3.5352 -78.41,78.4105 -3.54,-3.536" /></g></g></svg>