<svg width="254" height="60" viewBox="0 0 254 60" xmlns="http://www.w3.org/2000/svg"><title>Pivotal_Black_RGB</title><g fill="#FFF" fill-rule="evenodd"><path d="M47.664 15.352h9.012v43.345h-9.012V15.352zm.01-15.127h8.99V8.95h-8.99V.224zM108.664 15.352l-12.55 37.44c-2.157 6.124-6.003 6.91-9.116 6.91-4.624 0-7.408-2.13-9.048-6.897L67.49 21.71h-4.14v-6.358h10.798l10.78 34.805c.47 1.485.762 2.376 2.07 2.376 1.358 0 1.626-.904 2.064-2.376l11-34.805h8.602M130.854 52.568c6.976 0 11.3-5.29 11.3-11.636v-6.81c0-6.35-4.286-11.642-11.3-11.642-7.386 0-11.292 5.29-11.292 11.642v6.81c0 6.345 4.077 11.636 11.292 11.636m0-37.216c11.662 0 19.794 7.715 19.794 18.77v6.81c0 11.04-8.132 18.77-19.794 18.77-11.656 0-19.803-7.73-19.803-18.77v-6.81c0-11.055 8.148-18.77 19.804-18.77M222.592 16.735c-4.49-1.16-11.506-2-16.688-2-11.832 0-19.174 7.487-19.174 19.55v4.752c0 12.054 7.342 19.65 19.174 19.65.273 0 2.376.01 3.335-.084v-7.276c-.365 0-3.068.096-3.336.096-6.436 0-10.765-4.978-10.765-12.386v-4.75c0-7.408 4.328-12.384 10.764-12.384 2.913 0 7.31.236 8.827.558l.482.105.01 36.132h9.005v-40.46c0-.77 0-1.067-1.635-1.502M232.91.225h9.008v58.472h-9.01V.225zM166.647 6.007v9.345h14.673v7.002h-14.673V47.61c0 3.96 2.524 4.068 6.18 4.068h8.498v7.01h-11.497c-8.503 0-12.295-3.413-12.295-11.08V7.263l9.114-1.255M16.438.252L.5.255v58.433h9.893V9.075h4.946c1.156.01 2.236.048 3.213.07 8.09.157 12.118 2.636 12.118 8.94 0 .254.016.418.016.682 0 5.83-3.194 9.697-11.998 9.697-.84 0-2.112-.184-2.112-.184v8.082s1.258-.01 2.12-.01c12.642 0 21.572-4.983 21.572-17.495 0-.25-.017-.508-.017-.756C40.25 5.134 30.536.253 16.44.253M250.054 55.03c.65-.013.976-.306.976-.79 0-.517-.325-.753-1.01-.753h-.673v1.564l.707-.02zm-.695 1.934h-.563V52.98h1.28c.998 0 1.514.462 1.514 1.228 0 .584-.312.966-.783 1.146l.997 1.61h-.65l-.91-1.474-.885.044v1.43z"/><path d="M250.122 58.1a3.08 3.08 0 0 1-3.073-3.082c0-1.706 1.376-3.095 3.072-3.095 1.694 0 3.073 1.39 3.073 3.095a3.08 3.08 0 0 1-3.073 3.082zm0-6.774c-2.03 0-3.67 1.655-3.67 3.69a3.676 3.676 0 0 0 3.67 3.68c2.03 0 3.67-1.654 3.67-3.68 0-2.035-1.64-3.69-3.67-3.69z"/></g></svg>