<?xml version="1.0" encoding="UTF-8"?>
<svg width="175px" height="174px" viewBox="0 0 175 174" version="1.1" xmlns="http://www.w3.org/2000/svg" xmlns:xlink="http://www.w3.org/1999/xlink">
    <!-- Generator: Sketch 40.3 (33839) - http://www.bohemiancoding.com/sketch -->
    <title>elelator</title>
    <desc>Created with Sketch.</desc>
    <defs></defs>
    <g id="Page-1" stroke="none" stroke-width="3" fill="none" fill-rule="evenodd">
        <g id="elelator">
            <g id="noun_649510_cc" stroke-width="3" stroke="#9B9B9B">
                <g id="58--Elevator--(Outline)">
                    <g id="Group">
                        <g id="Shape">
                            <g>
                                <path d="M168.0237,174 L6.0237,174 C2.7087,174 0.0237,171.315 0.0237,168 L0.0237,6 C0.0237,2.685 2.7087,0 6.0237,0 L168.0237,0 C171.3387,0 174.0237,2.685 174.0237,6 L174.0237,168 C174.0237,171.315 171.3387,174 168.0237,174 L168.0237,174 L168.0237,174 Z"></path>
                                <path d="M138.0237,174 L87.0237,174 L87.0237,36 L132.0237,36 C135.3387,36 138.0237,38.685 138.0237,42 L138.0237,174 L138.0237,174 L138.0237,174 Z"></path>
                                <path d="M87.0237,174 L36.0237,174 L36.0237,42 C36.0237,38.685 38.7087,36 42.0237,36 L87.0237,36 L87.0237,174 L87.0237,174 L87.0237,174 Z"></path>
                                <polygon points="148 109.601165 164.206241 109.601165 164.206241 93 148 93"></polygon>
                                <polygon points="66.024 24 108.024 24 108.024 12 66.024 12"></polygon>
                                <polygon points="148 126.601165 164.206241 126.601165 164.206241 110 148 110"></polygon>
                            </g>
                        </g>
                    </g>
                </g>
            </g>
            <polygon id="Triangle-down" fill="#9B9B9B" points="161 114.000868 151 114 156.000543 122.684498"></polygon>
            <polygon id="Triangle-down-Copy" fill="#9B9B9B" transform="translate(156.000000, 101.342249) rotate(180.000000) translate(-156.000000, -101.342249) " points="161 97.0008684 151 97 156.000543 105.684498"></polygon>
        </g>
    </g>
</svg>