<svg width="119" height="235" viewBox="0 0 119 235" xmlns="http://www.w3.org/2000/svg"><title>Imported Layers</title><g fill="none" fill-rule="evenodd"><path d="M89.308 153.653H29.953c-12.35 0-23.22-8.737-24.755-19.89-6.1-44.325-6.1-67.265.006-111.575C6.81 10.555 18.144.728 29.954.728h59.354c11.572 0 23.142 10.282 24.76 22.004 6.118 44.446 6.118 66.136 0 110.515-1.553 11.252-12.66 20.406-24.76 20.406zM29.953 4.483c-9.856 0-19.678 8.512-21.018 18.216-6.05 43.903-6.05 66.634-.006 110.552 1.282 9.335 10.517 16.647 21.023 16.647h59.355c10.29 0 19.724-7.7 21.03-17.165 6.06-43.968 6.06-65.457 0-109.493-1.38-9.993-11.207-18.76-21.03-18.76H29.953z" fill="#9B9B9B"/><path d="M85.24 133.233H34.022c-2.45 0-4.444-1.987-4.444-4.43V116.89c0-2.443 1.993-4.43 4.444-4.43H85.24c2.45 0 4.444 1.987 4.444 4.43v11.913c0 2.443-1.993 4.43-4.444 4.43zm-51.218-17.02a.686.686 0 0 0-.678.677v11.913c0 .366.31.676.678.676H85.24c.368 0 .678-.31.678-.677V116.89a.686.686 0 0 0-.678-.676H34.022zM83.34 57.152a1.88 1.88 0 0 1-1.884-1.877c0-11.997-9.79-21.76-21.825-21.76a1.88 1.88 0 0 1-1.882-1.876 1.88 1.88 0 0 1 1.883-1.878c14.112 0 25.592 11.446 25.592 25.513a1.88 1.88 0 0 1-1.883 1.877M49.03 78.294c-.28 0-.568-.063-.84-.197-6.873-3.42-11.796-9.653-13.505-17.1a1.883 1.883 0 0 1 3.67-.838c1.457 6.347 5.656 11.66 11.518 14.578a1.875 1.875 0 0 1-.842 3.556" fill="#9B9B9B"/><path d="M59.63 70.282c-8.3 0-15.052-6.73-15.052-15.007 0-8.274 6.752-15.007 15.053-15.007 8.302 0 15.055 6.733 15.055 15.007 0 8.276-6.753 15.007-15.054 15.007zm0-26.26c-6.223 0-11.287 5.05-11.287 11.253 0 6.206 5.064 11.253 11.288 11.253 6.226 0 11.29-5.047 11.29-11.253 0-6.204-5.064-11.253-11.29-11.253z" fill="#9B9B9B"/><path d="M59.63 93.916c-21.374 0-38.764-17.335-38.764-38.64 0-21.308 17.39-38.644 38.765-38.644 21.377 0 38.766 17.336 38.766 38.643 0 21.306-17.39 38.64-38.765 38.64zm0-73.53c-19.297 0-34.998 15.652-34.998 34.89 0 19.236 15.7 34.886 35 34.886 19.297 0 35-15.65 35-34.887 0-19.237-15.703-34.89-35-34.89zM81.935 171.132a1.88 1.88 0 0 1-1.883-1.877v-10.46c0-2.665-2.365-4.916-5.164-4.916-2.8 0-5.165 2.204-5.165 4.814v10.56a1.88 1.88 0 0 1-1.883 1.878 1.88 1.88 0 0 1-1.883-1.877v-10.56c0-4.726 4.007-8.57 8.93-8.57 4.84 0 8.93 3.97 8.93 8.67v10.46a1.88 1.88 0 0 1-1.882 1.877" fill="#9B9B9B"/><path d="M96.03 175.815a1.88 1.88 0 0 1-1.883-1.877V161.68c0-2.664-2.366-4.915-5.164-4.915-2.8 0-5.165 2.205-5.165 4.815v12.358a1.88 1.88 0 0 1-1.883 1.877 1.88 1.88 0 0 1-1.883-1.877V161.58c0-4.725 4.006-8.57 8.93-8.57 4.84 0 8.93 3.97 8.93 8.67v12.258a1.88 1.88 0 0 1-1.882 1.877" fill="#9B9B9B"/><path d="M92.456 234.36H65.908c-10.832 0-18.664-17.146-25.575-32.275-2.664-5.833-5.18-11.342-7.293-14.308-2.5-3.508-3.173-8.916.38-12.466 3.485-3.47 8.41-3.608 11.712-.322l.058.06 6.67 7.257v-51.613c0-4.7 4.09-8.668 8.932-8.668 4.925 0 8.93 3.843 8.93 8.568v29.295a1.88 1.88 0 0 1-1.882 1.878 1.88 1.88 0 0 1-1.883-1.878v-29.295c0-2.61-2.365-4.814-5.165-4.814s-5.165 2.25-5.165 4.914v56.44c0 .774-.476 1.47-1.2 1.75-.725.28-1.546.09-2.07-.482l-9.912-10.782c-1.84-1.806-4.333-1.673-6.36.346-2.056 2.054-1.522 5.47.025 7.64 2.32 3.257 4.79 8.664 7.65 14.925 5.798 12.693 13.74 30.076 22.148 30.076h26.09c2.413-1.296 16.245-9.406 16.245-24.847V168.16c0-2.665-2.366-4.916-5.166-4.916-2.798 0-5.164 2.205-5.164 4.815v10.562a1.88 1.88 0 0 1-1.883 1.877 1.88 1.88 0 0 1-1.883-1.878v-10.56c0-4.726 4.006-8.57 8.93-8.57 4.842 0 8.93 3.97 8.93 8.67v37.597c0 19.227-17.97 28.05-18.736 28.416a1.878 1.878 0 0 1-.814.184" fill="#9B9B9B"/><path d="M43.802 176.317l9.943 10.814v-56.438c0-3.727 3.248-6.79 7.047-6.79 3.8 0 7.048 2.962 7.048 6.69v29.296" fill="#FFF"/><path d="M53.745 189.01a1.883 1.883 0 0 1-1.388-.61l-9.943-10.815a1.873 1.873 0 0 1 .116-2.652c.766-.7 1.956-.65 2.66.116l6.67 7.255v-51.613c0-4.7 4.09-8.668 8.932-8.668 4.925 0 8.93 3.843 8.93 8.568v29.295a1.88 1.88 0 0 1-1.882 1.878 1.88 1.88 0 0 1-1.883-1.878v-29.295c0-2.61-2.365-4.814-5.165-4.814s-5.165 2.25-5.165 4.914v56.44a1.877 1.877 0 0 1-1.882 1.877" fill="#9B9B9B"/></g></svg>